# xmcd
#
# Track frame offsets: 
#        182
#        12725
#        25285
#        38315
#        49227
#        59982
#        70577
#        83080
#        97292
#        110877
#
# Disc length: 1588 seconds
#
# Revision: 3
# Processed by: cddbd v1.5.2PL0 Copyright (c) Steve Scherf et al.
# Submitted via: ExactAudioCopyFreeDBPlugin 1.0
#
DISCID=8d06320a
DTITLE=The Coasters - Yakety Yak and Other Hits
DYEAR=1997
DGENRE=Rhythm and Blues
TTITLE0=Searchin'
TTITLE1=Smokey Joe's Café
TTITLE2=Little Egypt
TTITLE3=Idol with the Golden Head
TTITLE4=Young Blood
TTITLE5=Charlie Brown
TTITLE6=Framed
TTITLE7=Turtle Dovin'
TTITLE8=Shoppin' for Clothes
TTITLE9=Yakety Yak
EXTD=
EXTT0=
EXTT1=
EXTT2=
EXTT3=
EXTT4=
EXTT5=
EXTT6=
EXTT7=
EXTT8=
EXTT9=
PLAYORDER=
